<!-- cafe-window.svg -->
<svg xmlns="http://www.w3.org/2000/svg" viewBox="0 0 140 100" width="70" height="50">
  <rect x="2" y="2" width="136" height="96" stroke="#333" stroke-width="3" fill="none" rx="6"/>
  <line x1="2" y1="50" x2="138" y2="50" stroke="#333" stroke-width="2"/>
  <line x1="70" y1="2" x2="70" y2="98" stroke="#333" stroke-width="2"/>
  <g stroke="#333" stroke-width="1.5" fill="none">
    <line x1="40" y1="2" x2="40" y2="20"/>
    <ellipse cx="40" cy="26" rx="8" ry="4"/>
    <line x1="100" y1="2" x2="100" y2="20"/>
    <ellipse cx="100" cy="26" rx="8" ry="4"/>
  </g>
  <path d="M50,65 h40 a10,8 0 0,1 10,8 v4 a2,2 0 0,1 -2,2 h-56 a2,2 0 0,1 -2,-2 v-4 a10,8 0 0,1 10,-8 z" fill="#333"/>
  <line x1="90" y1="65" x2="90" y2="55" stroke="#333" stroke-width="3" stroke-linecap="round"/>
</svg>