<!-- riyadh-nightscape-window.svg -->
<svg xmlns="http://www.w3.org/2000/svg" viewBox="0 0 140 80" width="70" height="40">
  <rect x="2" y="2" width="136" height="76" fill="none" stroke="#222" stroke-width="3" rx="3"/>
  <line x1="2" y1="40" x2="138" y2="40" stroke="#222" stroke-width="2"/>
  <line x1="70" y1="2" x2="70" y2="78" stroke="#222" stroke-width="2"/>
  <rect x="4" y="4" width="132" height="36" fill="#1b1b3a"/>
  <g fill="#f4f4c1">
    <circle cx="20" cy="12" r="1.5"/>
    <circle cx="45" cy="8" r="1"/>
    <circle cx="65" cy="15" r="1.2"/>
    <circle cx="95" cy="10" r="1"/>
    <circle cx="115" cy="14" r="1.3"/>
  </g>
  <g fill="#222">
    <rect x="20" y="24" width="12" height="24"/>
    <rect x="24" y="24" width="4" height="10" fill="#1b1b3a"/>
    <path d="M50,60 L56,30 L62,60 Z"/>
    <circle cx="56" cy="30" r="1.5" fill="#f4f4c1"/>
    <rect x="80" y="44" width="10" height="16"/>
    <rect x="94" y="38" width="8" height="22"/>
    <rect x="106" y="50" width="6" height="10"/>
  </g>
  <path d="M2,76 C40,60 100,80 138,62 L138,78 L2,78 Z" fill="#4b382a"/>
</svg>